<svg width="20" height="21" viewBox="0 0 20 21" fill="none" xmlns="http://www.w3.org/2000/svg">
<path d="M-0.0039978 4.99597C-0.0039978 3.8025 0.470108 2.6579 1.31402 1.81399C2.15794 0.970077 3.30253 0.495972 4.496 0.495972H9.504C10.6672 0.496136 11.7852 0.946743 12.6235 1.75328C13.4617 2.55981 13.955 3.6596 14 4.82197V10.176C13.9653 11.0771 13.6608 11.947 13.1259 12.6731C12.591 13.3991 11.8504 13.9478 11 14.248L11.004 4.99597C11.004 4.59815 10.846 4.21662 10.5647 3.93531C10.2834 3.65401 9.90183 3.49597 9.504 3.49597H4.496C4.09818 3.49597 3.71665 3.65401 3.43534 3.93531C3.15404 4.21662 2.996 4.59815 2.996 4.99597V10.004C2.996 10.658 3.416 11.214 4 11.42V14.476C2.89926 14.3539 1.88219 13.8302 1.14344 13.0051C0.404686 12.18 -0.00385472 11.1115 -0.0039978 10.004V4.99597ZM6 16C6 17.1934 6.47411 18.338 7.31802 19.182C8.16194 20.0259 9.30653 20.5 10.5 20.5H15.5C16.6935 20.5 17.8381 20.0259 18.682 19.182C19.5259 18.338 20 17.1934 20 16V11C20 9.8931 19.592 8.82506 18.8541 8.00006C18.1161 7.17505 17.1 6.65096 16 6.52797V9.58597C16.582 9.79197 17 10.346 17 11V16C17 16.3978 16.842 16.7793 16.5607 17.0606C16.2794 17.3419 15.8978 17.5 15.5 17.5H10.5C10.1022 17.5 9.72065 17.3419 9.43934 17.0606C9.15804 16.7793 9 16.3978 9 16V6.75597C8.12243 7.06624 7.36266 7.64101 6.82537 8.40109C6.28809 9.16117 5.99972 10.0692 6 11V16Z" fill="white"/>
</svg>
