<svg width="32" height="22" viewBox="0 0 32 22" fill="none" xmlns="http://www.w3.org/2000/svg">
<path d="M31.3333 3.67606C31.1521 3.0297 30.7992 2.44452 30.312 1.98273C29.811 1.50673 29.1971 1.16624 28.528 0.993394C26.024 0.333394 15.992 0.333394 15.992 0.333394C11.8098 0.285811 7.62857 0.495093 3.472 0.96006C2.80292 1.14568 2.19008 1.49378 1.688 1.97339C1.19467 2.44806 0.837332 3.03339 0.650666 3.67473C0.202256 6.09039 -0.0156117 8.54319 -1.06363e-06 11.0001C-0.0160011 13.4547 0.201332 15.9067 0.650666 18.3254C0.833332 18.9641 1.18933 19.5467 1.684 20.0174C2.17867 20.4881 2.79467 20.8281 3.472 21.0081C6.00933 21.6667 15.992 21.6667 15.992 21.6667C20.1796 21.7144 24.3661 21.5051 28.528 21.0401C29.1971 20.8672 29.811 20.5267 30.312 20.0507C30.799 19.589 31.1516 19.0038 31.332 18.3574C31.7921 15.9427 32.0158 13.4888 32 11.0307C32.0346 8.5622 31.8112 6.09681 31.3333 3.67473V3.67606ZM12.8027 15.5654V6.43606L21.1493 11.0014L12.8027 15.5654Z" fill="white"/>
</svg>
